<?xml version="1.0" encoding="utf-8"?>
<!-- Generator: Adobe Illustrator 23.1.1, SVG Export Plug-In . SVG Version: 6.00 Build 0)  -->
<svg version="1.1" id="Capa_1" xmlns="http://www.w3.org/2000/svg" xmlns:xlink="http://www.w3.org/1999/xlink" x="0px" y="0px"
	 viewBox="0 0 70.2 70" style="enable-background:new 0 0 70.2 70;" xml:space="preserve">
<style type="text/css">
	.st0{fill-rule:evenodd;clip-rule:evenodd;fill:#992B60;}
	.st1{fill-rule:evenodd;clip-rule:evenodd;fill:#FFFFFF;fill-opacity:0.38;}
	.st2{fill-rule:evenodd;clip-rule:evenodd;fill-opacity:0.38;}
	.st3{opacity:0.32;fill-rule:evenodd;clip-rule:evenodd;fill:#393939;enable-background:new    ;}
	.st4{fill:#FFFFFF;}
	.st5{fill:#AE1657;}
</style>
<title>icon_sunat</title>
<g>
	<path class="st0" d="M0.2,0h70v70h-70V0z"/>
	<path class="st1" d="M4.2,1h61c2.7,0,4.3,0.7,5,2V0h-70v3C0.9,1.7,2.2,1,4.2,1z"/>
	<path class="st2" d="M4.2,69h61c2.7,0,4.3-1,5-3v4h-70v-4C0.7,67.8,2.3,69.1,4.2,69z"/>
	<path class="st3" d="M45.2,48c0,0.7-4.6,4.7-4,5"/>
	<path class="st3" d="M42.2,50"/>
	<path class="st3" d="M52.2,35l2,3c-10,13-26.5,31-27,31H3.5c-1.6,0-3.2-0.7-3.2-2.7V49c0,3-0.5-3.7,0-4l34-33c6,8,5.6,14,6,14l12,7
		"/>
</g>
<g id="JQbBD5.tif">
	<path class="st4" d="M49.5,43c0.4-1.6,0.6-3.2,0.8-4.8c0.4-2.4-1.1-4.8-3.4-5.6c-2.3-0.9-4.8-1.3-7.2-1.2c-3,0.1-6-0.5-8.8-1.7
		c-2.6-1.1-4.3-3.5-4.6-6.3c-0.1-1.9,0.6-3.7,1.9-5c2.5-2.6,5-5.1,7.5-7.6c1-1,2.6-1,3.7,0c0,0,0,0,0,0l19.5,19.5
		c1,0.8,1.2,2.3,0.4,3.3c-0.1,0.2-0.3,0.4-0.5,0.5C55.7,37,52.7,39.9,49.5,43z"/>
	<path class="st4" d="M24.6,25.2c-0.4,1.6-0.7,3.3-0.8,5c-0.2,2.4,1.3,4.7,3.7,5.4c2.3,0.8,4.8,1.2,7.3,1.1c2.6,0,5.1,0.4,7.5,1.3
		c1.7,0.6,3.2,1.7,4.3,3.2c2,2.7,1.7,6.4-0.7,8.8c-2.4,2.5-4.9,5-7.4,7.5c-0.9,1.1-2.4,1.2-3.5,0.4c-0.1-0.1-0.3-0.2-0.4-0.4
		c-6.4-6.5-12.9-12.9-19.3-19.4c-1.3-1.3-1.3-2.6,0.1-3.9c2.9-2.8,5.8-5.5,8.7-8.3C24.1,25.5,24.3,25.4,24.6,25.2z"/>
</g>
<path class="st4" d="M63.6,59.4l1.4,0.8c0.2,0.1,0.2,0.3,0.2,0.5c-0.4,1.1-1,2.2-1.8,3.1c-0.1,0.1-0.3,0.2-0.5,0.1L61.5,63
	c-0.6,0.5-1.3,0.9-2,1.2v1.6c0,0.2-0.1,0.3-0.3,0.4c-1.2,0.3-2.4,0.3-3.5,0c-0.2,0-0.3-0.2-0.3-0.4v-1.6c-0.7-0.3-1.4-0.6-2-1.2
	l-1.4,0.8c-0.2,0.1-0.4,0.1-0.5-0.1c-0.8-0.9-1.4-1.9-1.8-3.1c-0.1-0.2,0-0.4,0.2-0.5l1.4-0.8c-0.1-0.8-0.1-1.5,0-2.3l-1.4-0.8
	c-0.2-0.1-0.2-0.3-0.2-0.5c0.4-1.1,1-2.2,1.8-3.1c0.1-0.1,0.3-0.2,0.5-0.1l1.4,0.8c0.6-0.5,1.3-0.9,2-1.1v-1.6
	c0-0.2,0.1-0.3,0.3-0.4c1.2-0.3,2.4-0.3,3.5,0c0.2,0,0.3,0.2,0.3,0.4v1.6c0.7,0.3,1.4,0.6,2,1.1l1.4-0.8c0.2-0.1,0.4-0.1,0.5,0.1
	c0.8,0.9,1.4,1.9,1.8,3.1c0.1,0.2,0,0.4-0.2,0.5l-1.4,0.8C63.7,57.9,63.7,58.7,63.6,59.4z"/>
<path class="st5" d="M60,58.3c0-1.4-1.2-2.6-2.6-2.6c-1.4,0-2.6,1.2-2.6,2.6c0,1.4,1.2,2.6,2.6,2.6c0,0,0,0,0,0
	C58.9,60.9,60,59.7,60,58.3C60,58.3,60,58.3,60,58.3z"/>
</svg>
